<svg xmlns="http://www.w3.org/2000/svg" viewBox="0 0 32 32" width="28" height="28"><g><circle fill="#25d366" cx="16" cy="16" r="16"/><path fill="#fff" d="M25.47 22.54c-1.18 1.18-2.75 1.91-4.43 1.91a7.26 7.26 0 0 1-3.91-1.13l-4.55 1.19 1.21-4.42a7.24 7.24 0 0 1-1.13-3.91c0-1.68.73-3.25 1.91-4.43A7.23 7.23 0 0 1 21.04 18l1.19-4.55-4.42 1.21a7.26 7.26 0 0 1-3.91-1.13c-1.18-1.18-1.91-2.75-1.91-4.43s.73-3.25 1.91-4.43A7.23 7.23 0 0 1 21.04 18l1.19-4.55-4.42 1.21a7.26 7.26 0 0 1-3.91-1.13c-1.18-1.18-1.91-2.75-1.91-4.43s.73-3.25 1.91-4.43C13.23 6.76 14.8 6.03 16.48 6.03c1.68 0 3.25.73 4.43 1.91a7.23 7.23 0 0 1-1.91 12.6z"/></g></svg>